<svg id="Layer_1" data-name="Layer 1" xmlns="http://www.w3.org/2000/svg" viewBox="0 0 512 448"><defs><style>.cls-1{fill:#fff;}</style></defs><title>camera-solid</title><path class="cls-1" d="M539,201V489a48,48,0,0,1-48,48H75a48,48,0,0,1-48-48V201a48,48,0,0,1,48-48h88l12.3-32.9A47.93,47.93,0,0,1,220.2,89H345.7a47.93,47.93,0,0,1,44.9,31.1L403,153h88A48,48,0,0,1,539,201ZM403,345A120,120,0,1,0,283,465,120.1,120.1,0,0,0,403,345Zm-32,0a88,88,0,1,1-88-88A88.13,88.13,0,0,1,371,345Z" transform="translate(-27 -89)"/></svg>