<svg id="Layer_1" data-name="Layer 1" xmlns="http://www.w3.org/2000/svg" viewBox="0 0 284 284"><defs><style>.cls-1{fill:#1c1c1c;opacity:0.93;}.cls-2{fill:#fff;}</style></defs><title>close</title><circle class="cls-1" cx="142" cy="142" r="142"/><path class="cls-2" d="M257,236.57c-.12,4.75-2.27,8.35-6.64,10.37a10.68,10.68,0,0,1-11.88-1.51c-.76-.64-1.52-1.33-2.22-2q-31.86-31.86-63.67-63.74c-1.14-1.13-1.71-1.32-3-.06C148.1,201.1,126.6,222.47,105.22,244a12.2,12.2,0,0,1-14.35,2.53,11.53,11.53,0,0,1-3.16-17.46c.57-.69,1.2-1.26,1.83-1.89q31.88-32,63.87-63.81c1.2-1.2,1.14-1.7,0-2.91-21.5-21.43-42.88-42.93-64.44-64.3a12.27,12.27,0,0,1-2.53-14.55,11.51,11.51,0,0,1,17.2-3.16c.7.63,1.39,1.27,2.09,2q32,31.88,63.86,63.87c1.14,1.13,1.65,1.26,2.85.06q32.06-32.16,64.18-64.31c3.67-3.67,7.78-5.06,12.71-3.54,7.21,2.21,10.12,11.89,5.31,17.71-.69.82-1.39,1.64-2.15,2.4q-31.86,32-63.86,63.8c-1.27,1.27-1.14,1.84,0,3q32.06,32,64.12,64.12C255.34,230.12,257.11,232.91,257,236.57Z" transform="translate(-29 -20)"/></svg>