<?xml version="1.0" encoding="utf-8"?>
<!-- Generator: Adobe Illustrator 22.0.0, SVG Export Plug-In . SVG Version: 6.00 Build 0)  -->
<svg version="1.1" id="Layer_1" xmlns="http://www.w3.org/2000/svg" xmlns:xlink="http://www.w3.org/1999/xlink" x="0px" y="0px"
	 viewBox="0 0 284 284" style="enable-background:new 0 0 284 284;" xml:space="preserve">
<style type="text/css">
	.st0{opacity:0.93;fill:#03A9F4;enable-background:new    ;}
	.st1{fill:#FFFFFF;}
</style>
<title>close</title>
<circle class="st0" cx="142" cy="142" r="142"/>
<path class="st1" d="M228,216.6c-0.1,4.8-2.3,8.4-6.6,10.4c-3.9,2-8.6,1.4-11.9-1.5c-0.8-0.6-1.5-1.3-2.2-2
	c-21.2-21.2-42.5-42.5-63.7-63.7c-1.1-1.1-1.7-1.3-3-0.1c-21.5,21.5-43,42.8-64.4,64.4c-3.7,3.9-9.5,4.9-14.3,2.5
	c-5.5-3.1-7.5-10.2-4.4-15.7c0.4-0.6,0.8-1.2,1.2-1.8c0.6-0.7,1.2-1.3,1.8-1.9c21.3-21.3,42.5-42.6,63.9-63.8c1.2-1.2,1.1-1.7,0-2.9
	C102.9,119,81.5,97.5,60,76.2c-4-3.7-5-9.7-2.5-14.6c3.2-5.5,10.2-7.4,15.7-4.2c0.5,0.3,1,0.6,1.5,1c0.7,0.6,1.4,1.3,2.1,2
	c21.3,21.3,42.6,42.5,63.9,63.9c1.1,1.1,1.6,1.3,2.9,0.1c21.4-21.4,42.8-42.9,64.2-64.3c3.7-3.7,7.8-5.1,12.7-3.5
	c7.2,2.2,10.1,11.9,5.3,17.7c-0.7,0.8-1.4,1.6-2.1,2.4c-21.2,21.3-42.5,42.6-63.9,63.8c-1.3,1.3-1.1,1.8,0,3
	c21.4,21.3,42.7,42.7,64.1,64.1C226.3,210.1,228.1,212.9,228,216.6z"/>
</svg>
