<?xml version="1.0" encoding="utf-8"?>
<!-- Generator: Adobe Illustrator 22.0.0, SVG Export Plug-In . SVG Version: 6.00 Build 0)  -->
<svg version="1.1" id="Layer_1" focusable="false" xmlns="http://www.w3.org/2000/svg" xmlns:xlink="http://www.w3.org/1999/xlink"
	 x="0px" y="0px" viewBox="0 0 448 512" style="enable-background:new 0 0 448 512;" xml:space="preserve">
<style type="text/css">
	.st0{fill:#FFFFFF;}
	.st1{fill:#3B579D;}
</style>
<rect x="91" y="80" class="st0" width="276" height="382"/>
<path class="st1" d="M400,14H48C21.5,14,0,35.5,0,62v352c0,26.5,21.5,48,48,48h137.3V309.7h-63V238h63v-54.6
	c0-62.2,37-96.5,93.7-96.5c27.1,0,55.5,4.8,55.5,4.8v61h-31.3c-30.8,0-40.4,19.1-40.4,38.7V238h68.8l-11,71.7h-57.8V462H400
	c26.5,0,48-21.5,48-48V62C448,35.5,426.5,14,400,14z"/>
</svg>
