<svg id="Layer_1" data-name="Layer 1" xmlns="http://www.w3.org/2000/svg" viewBox="0 0 223.05 210.92"><defs><style>.cls-1{fill:#fff;}.cls-2{fill:#e0245e;}</style></defs><title>i-love</title><path class="cls-1" d="M228,216.57c-.12,4.75-2.27,8.35-6.64,10.37a10.68,10.68,0,0,1-11.88-1.51c-.76-.64-1.52-1.33-2.22-2q-31.86-31.86-63.67-63.74c-1.14-1.13-1.71-1.32-3-.06C119.1,181.1,97.6,202.47,76.22,224a12.2,12.2,0,0,1-14.35,2.53,11.54,11.54,0,0,1-4.38-15.71,12.45,12.45,0,0,1,1.22-1.75c.57-.69,1.2-1.26,1.83-1.89q31.88-32,63.87-63.81c1.2-1.2,1.14-1.7,0-2.91C102.91,119,81.53,97.53,60,76.16a12.27,12.27,0,0,1-2.53-14.55,11.53,11.53,0,0,1,17.2-3.16c.7.63,1.39,1.27,2.09,2q32,31.88,63.86,63.87c1.14,1.13,1.65,1.26,2.85.06q32.06-32.16,64.18-64.31c3.67-3.67,7.78-5.06,12.71-3.54,7.21,2.21,10.12,11.89,5.31,17.71-.69.82-1.39,1.64-2.15,2.4q-31.86,32-63.86,63.8c-1.27,1.27-1.14,1.84,0,3q32.06,32,64.12,64.12C226.34,210.12,228.11,212.91,228,216.57Z" transform="translate(-30.47 -39)"/><path class="cls-2" d="M253.52,113.07c-1.71,32.75-22.07,64.93-48.4,94.07-13.54,15-28.56,28.42-46.77,37.79-8.93,4.59-18.42,7.43-27.6,2.12-54.58-31.58-93.19-75.2-99.95-140.4-2.91-28.06,14-53,38.7-63.13,23.66-9.71,46.1-3.64,66.41,18.68,4.55,5,6.57,6.35,11.93.43C168.42,39.88,190.56,33.82,214,43.32,238.52,53.24,253.73,76.94,253.52,113.07Z" transform="translate(-30.47 -39)"/></svg>